<svg width="100%" height="100%" viewBox="0 0 238 132" version="1.1" xmlns="http://www.w3.org/2000/svg" xmlns:xlink="http://www.w3.org/1999/xlink" xml:space="preserve" xmlns:serif="http://www.serif.com/" style="fill-rule:evenodd;clip-rule:evenodd;stroke-linejoin:round;stroke-miterlimit:2;">
    <g id="Layer-1" serif:id="Layer 1">
        <g transform="matrix(1,0,0,1,1,-81.4261)">
            <path d="M105.968,82.776L105.968,87.172L87.235,87.172L86.611,87.197L85.986,87.247L85.387,87.322L84.762,87.397L84.163,87.496L83.563,87.621L82.989,87.771L82.389,87.921L81.815,88.096L81.24,88.296L80.666,88.521L80.116,88.745L79.542,88.995L78.993,89.27L78.443,89.569L77.919,89.869L77.394,90.194L76.894,90.544L76.42,90.918L75.945,91.293L75.496,91.693L75.046,92.117L74.646,92.542L74.247,93.016L73.847,93.491L73.498,93.966L73.148,94.49L72.823,95.015L72.498,95.564L72.199,96.138L71.924,96.713L105.968,96.713L105.968,101.284L69.626,101.284L69.526,101.709L69.451,102.158L69.401,102.633L69.351,103.107L69.301,103.607L69.277,104.131L69.251,104.681L69.251,105.955L69.277,106.629L69.351,107.304L69.401,107.953L69.501,108.602L69.626,109.251L69.751,109.876L69.901,110.5L70.076,111.1L70.275,111.699L70.5,112.274L70.75,112.848L71,113.423L71.275,113.972L71.574,114.522L71.899,115.046L72.249,115.571L72.598,116.071L72.973,116.57L73.372,117.045L73.797,117.494L74.222,117.944L74.671,118.368L75.121,118.793L75.621,119.193L76.12,119.567L76.645,119.942L77.169,120.292L77.719,120.641L78.293,120.966L78.893,121.291L79.492,121.565L80.116,121.865L80.766,122.115L81.415,122.365L82.065,122.59L82.764,122.789L83.438,122.989L84.138,123.139L84.862,123.314L85.587,123.439L86.336,123.564L87.11,123.664L87.885,123.739L88.659,123.788L89.458,123.838L90.257,123.863L91.081,123.888L105.968,123.888L105.968,128.06L90.607,128.06L89.583,128.035L88.584,128.009L87.61,127.96L86.636,127.885L85.687,127.76L84.737,127.635L83.838,127.485L82.939,127.335L82.04,127.135L81.191,126.91L80.341,126.686L79.517,126.411L78.693,126.136L77.894,125.836L77.119,125.512L76.37,125.137L75.621,124.763L74.921,124.388L74.222,123.988L73.547,123.539L72.923,123.114L72.299,122.64L71.699,122.165L71.1,121.665L70.55,121.166L70.026,120.641L69.501,120.092L69.027,119.517L68.552,118.943L68.102,118.343L67.703,117.719L67.303,117.095L66.929,116.445L66.579,115.796L66.254,115.121L65.954,114.447L65.655,113.748L65.405,113.048L65.18,112.324L64.98,111.599L64.805,110.875L64.631,110.126L64.506,109.377L64.406,108.602L64.306,107.828L64.256,107.054L64.206,106.254L64.206,105.43L64.231,104.656L64.256,103.882L64.331,103.107L64.406,102.333L64.531,101.584L64.681,100.859L64.855,100.11L65.055,99.386L65.255,98.686L65.505,97.962L65.78,97.263L66.079,96.588L66.404,95.914L66.779,95.24L67.153,94.565L67.553,93.916L67.978,93.266L68.427,92.667L68.902,92.042L69.401,91.468L69.901,90.893L70.425,90.344L70.975,89.794L71.524,89.27L72.124,88.77L72.723,88.296L73.348,87.821L73.972,87.371L74.646,86.947L75.321,86.522L76.02,86.123L76.72,85.748L77.469,85.398L78.218,85.049L78.968,84.749L79.717,84.449L80.491,84.199L81.29,83.95L82.065,83.725L82.864,83.525L83.688,83.35L84.512,83.201L85.337,83.076L86.186,82.976L87.035,82.901L87.885,82.826L88.759,82.801L89.633,82.776L105.968,82.776ZM206.551,128.06L202.105,127.86L202.105,95.289L202.13,94.84L202.18,94.365L202.23,93.916L202.305,93.466L202.405,93.016L202.505,92.592L202.63,92.167L202.779,91.742L202.929,91.318L203.104,90.893L203.304,90.494L203.504,90.094L203.729,89.694L203.979,89.295L204.253,88.92L204.503,88.546L204.803,88.171L205.077,87.821L205.377,87.471L205.702,87.147L206.027,86.822L206.376,86.497L206.726,86.198L207.076,85.898L207.45,85.623L207.825,85.348L208.225,85.074L208.624,84.824L209.049,84.599L209.473,84.349L209.898,84.125L210.348,83.925L210.797,83.725L211.247,83.55L211.697,83.375L212.171,83.225L212.621,83.076L213.095,82.951L213.57,82.851L214.044,82.751L214.519,82.651L215.019,82.576L215.493,82.526L215.993,82.476L216.467,82.451L216.967,82.426L223.885,82.426L223.885,86.597L217.392,86.597L216.917,86.622L216.467,86.647L216.018,86.697L215.593,86.747L215.168,86.822L214.744,86.897L214.344,86.997L213.945,87.097L213.57,87.222L213.195,87.347L212.821,87.496L212.121,87.846L211.796,88.021L211.472,88.221L210.848,88.645L210.273,89.095L209.998,89.32L209.748,89.569L209.499,89.819L209.249,90.069L209.024,90.344L208.824,90.619L208.599,90.918L208.399,91.193L208.225,91.493L208.05,91.793L207.875,92.117L207.725,92.442L207.45,93.091L207.201,93.766L207.001,94.44L206.826,95.115L206.701,95.814L206.626,96.538L206.551,97.263L206.551,128.06ZM193.813,82.776L193.813,87.172L175.055,87.172L174.431,87.197L173.806,87.247L173.207,87.322L172.582,87.397L171.983,87.496L171.383,87.621L170.809,87.771L170.209,87.921L169.635,88.096L169.061,88.296L168.486,88.521L167.936,88.745L167.362,88.995L166.812,89.27L166.263,89.569L165.738,89.869L165.214,90.194L164.714,90.544L164.24,90.918L163.765,91.293L163.316,91.693L162.866,92.117L162.466,92.542L162.067,93.016L161.667,93.491L161.317,93.966L160.968,94.49L160.643,95.015L160.319,95.564L160.019,96.138L159.744,96.713L193.813,96.713L193.813,101.284L157.446,101.284L157.346,101.709L157.271,102.158L157.221,102.633L157.171,103.107L157.121,103.607L157.096,104.131L157.071,104.681L157.071,105.955L157.096,106.629L157.171,107.304L157.221,107.953L157.321,108.602L157.446,109.251L157.571,109.876L157.721,110.5L157.896,111.1L158.096,111.699L158.32,112.274L158.57,112.848L158.82,113.423L159.094,113.972L159.394,114.522L159.719,115.046L160.069,115.571L160.418,116.071L160.793,116.57L161.193,117.045L161.617,117.494L162.042,117.944L162.492,118.368L162.941,118.793L163.441,119.193L163.94,119.567L164.465,119.942L164.989,120.292L165.539,120.641L166.113,120.966L166.713,121.291L167.337,121.565L167.936,121.865L168.586,122.115L169.235,122.365L169.885,122.59L170.584,122.789L171.259,122.989L171.958,123.139L172.682,123.314L173.406,123.439L174.156,123.564L174.93,123.664L175.704,123.739L176.479,123.788L177.278,123.838L178.077,123.863L178.902,123.888L193.813,123.888L193.813,128.06L178.427,128.06L177.403,128.035L176.404,128.009L175.429,127.96L174.455,127.885L172.557,127.635L171.658,127.485L170.759,127.335L169.86,127.135L169.01,126.91L168.161,126.686L167.337,126.411L166.513,126.136L165.738,125.836L164.939,125.512L164.19,125.137L163.441,124.763L162.741,124.388L162.042,123.988L161.367,123.539L160.743,123.114L160.119,122.64L159.519,122.165L158.92,121.665L158.37,121.166L157.845,120.641L157.321,120.092L156.847,119.517L156.372,118.943L155.923,118.343L155.523,117.719L155.123,117.095L154.748,116.445L154.399,115.796L154.074,115.121L153.774,114.447L153.5,113.748L153.225,113.048L153,112.324L152.8,111.599L152.625,110.875L152.451,110.126L152.326,109.377L152.226,108.602L152.126,107.828L152.076,107.054L152.051,106.254L152.026,105.43L152.051,104.656L152.076,103.882L152.151,103.107L152.226,102.333L152.351,101.584L152.5,100.859L152.675,100.11L152.875,99.386L153.075,98.686L153.325,97.962L153.599,97.263L153.899,96.588L154.249,95.914L154.599,95.24L154.973,94.565L155.373,93.916L155.797,93.266L156.247,92.667L156.722,92.042L157.221,91.468L157.721,90.893L158.245,90.344L158.795,89.794L159.344,89.27L159.944,88.77L160.543,88.296L161.168,87.821L161.792,87.371L162.466,86.947L163.141,86.522L163.84,86.123L164.54,85.748L165.289,85.398L166.038,85.049L166.787,84.749L167.537,84.449L168.311,84.199L169.11,83.95L169.885,83.725L170.684,83.525L171.508,83.35L172.333,83.201L173.157,83.076L174.006,82.976L174.855,82.901L175.704,82.826L176.579,82.801L177.453,82.776L193.813,82.776ZM132.519,129.908L108.466,82.601L113.586,82.601L132.344,119.917L150.552,82.601L155.773,82.601L132.519,129.908Z"
            style='fill: gray'/>
        </g>
        <g transform="matrix(1,0,0,1,1,3.4488)">
            <path d="M192.874,52.752L192.874,57.148L174.141,57.148L173.517,57.173L172.892,57.223L172.293,57.298L171.669,57.373L171.069,57.473L170.47,57.598L169.895,57.747L169.296,57.897L168.721,58.072L168.147,58.272L167.572,58.497L167.023,58.722L166.448,58.971L165.899,59.246L165.349,59.546L164.825,59.846L164.3,60.17L163.801,60.52L163.301,60.895L162.852,61.269L162.402,61.669L161.952,62.094L161.553,62.518L161.153,62.993L160.754,63.467L160.404,63.942L160.054,64.466L159.704,64.991L159.405,65.54L159.105,66.115L158.83,66.69L192.874,66.69L192.874,71.26L156.532,71.26L156.433,71.685L156.358,72.134L156.308,72.584L156.233,73.083L156.208,73.583L156.183,74.108L156.158,74.657L156.158,75.931L156.183,76.606L156.233,77.28L156.308,77.929L156.408,78.579L156.532,79.228L156.657,79.852L156.807,80.477L156.982,81.076L157.182,81.676L157.407,82.25L157.657,82.825L157.906,83.399L158.181,83.949L158.481,84.498L158.805,85.023L159.155,85.547L159.505,86.047L159.879,86.546L160.279,87.021L160.679,87.47L161.128,87.92L161.578,88.345L162.028,88.769L162.527,89.169L163.026,89.544L163.551,89.918L164.075,90.268L164.625,90.618L165.199,90.942L165.799,91.267L166.399,91.542L167.023,91.841L167.672,92.091L168.322,92.341L168.971,92.566L169.646,92.766L170.345,92.965L171.044,93.115L171.768,93.29L172.493,93.415L173.242,93.54L174.017,93.64L174.766,93.715L175.565,93.765L176.364,93.815L177.164,93.84L177.988,93.865L234.911,93.865L234.911,98.036L177.513,98.036L176.489,98.011L175.49,97.986L174.516,97.936L173.542,97.861L172.593,97.736L171.643,97.611L170.745,97.486L169.845,97.311L168.946,97.112L168.097,96.887L167.248,96.662L166.424,96.387L165.599,96.113L164.8,95.813L164.026,95.488L163.276,95.113L162.527,94.764L161.828,94.364L161.128,93.965L160.454,93.54L159.805,93.09L159.18,92.616L158.581,92.141L158.006,91.667L157.457,91.142L156.932,90.618L156.408,90.068L155.933,89.494L155.459,88.919L155.009,88.32L154.584,87.695L154.185,87.071L153.81,86.421L153.485,85.772L153.16,85.098L152.836,84.398L152.561,83.724L152.311,83.025L152.086,82.3L151.887,81.576L151.712,80.852L151.537,80.102L151.412,79.353L151.312,78.579L151.212,77.804L151.162,77.03L151.112,76.231L151.112,74.632L151.162,73.858L151.237,73.083L151.312,72.309L151.437,71.56L151.587,70.836L151.762,70.086L151.936,69.362L152.161,68.663L152.411,67.938L152.686,67.239L152.986,66.565L153.31,65.89L153.66,65.216L154.06,64.541L154.459,63.892L154.884,63.243L155.333,62.618L155.808,62.019L156.283,61.444L156.807,60.87L157.332,60.32L157.881,59.771L158.431,59.246L159.03,58.747L159.63,58.272L160.229,57.798L160.879,57.348L161.528,56.923L162.227,56.499L162.927,56.099L163.626,55.724L164.375,55.375L165.1,55.025L165.874,54.725L166.623,54.426L167.397,54.176L168.172,53.926L168.971,53.701L169.77,53.501L170.595,53.327L171.419,53.177L172.243,53.052L173.067,52.952L173.917,52.877L174.791,52.802L175.665,52.777L176.539,52.752L192.874,52.752ZM147.041,69.587L147.041,98.211L142.42,98.211L142.42,71.035L142.395,70.536L142.37,70.061L142.32,69.587L142.27,69.112L142.195,68.638L142.095,68.163L141.996,67.714L141.871,67.239L141.721,66.789L141.571,66.34L141.371,65.915L141.196,65.466L140.972,65.041L140.747,64.616L140.497,64.192L140.247,63.767L139.973,63.367L139.673,62.968L139.373,62.568L139.073,62.194L138.748,61.819L138.424,61.469L138.074,61.12L137.724,60.795L137.35,60.47L136.975,60.145L136.575,59.846L136.176,59.546L135.776,59.271L135.352,58.996L134.902,58.722L134.452,58.472L134.003,58.222L133.553,57.997L133.079,57.798L132.604,57.598L132.13,57.398L131.655,57.248L131.181,57.098L130.681,56.948L130.206,56.823L129.707,56.724L129.207,56.624L128.708,56.549L128.208,56.474L127.684,56.424L127.159,56.399L126.66,56.374L126.06,56.399L125.461,56.424L124.886,56.449L124.312,56.524L123.737,56.599L123.188,56.699L122.638,56.798L122.089,56.948L121.539,57.098L121.015,57.248L120.465,57.448L119.966,57.648L119.441,57.848L118.942,58.097L118.442,58.347L117.943,58.622L117.443,58.922L116.994,59.196L116.519,59.521L116.069,59.846L115.645,60.17L115.245,60.52L114.82,60.87L114.446,61.244L114.071,61.619L113.697,62.019L113.347,62.418L112.997,62.843L112.672,63.268L112.373,63.717L112.073,64.167L111.773,64.616L111.499,65.091L111.249,65.565L111.024,66.04L110.799,66.54L110.599,67.014L110.425,67.514L110.25,68.013L110.1,68.513L109.975,69.037L109.85,69.537L109.775,70.061L109.675,70.586L109.625,71.11L109.575,71.635L109.55,72.16L109.55,98.036L104.904,98.036L104.904,70.536L104.955,69.887L105.004,69.212L105.104,68.588L105.204,67.938L105.329,67.314L105.504,66.69L105.679,66.065L105.879,65.466L106.103,64.866L106.353,64.267L106.628,63.692L106.953,63.118L107.277,62.543L107.627,61.969L107.977,61.419L108.376,60.87L108.776,60.345L109.201,59.846L109.65,59.346L110.1,58.872L110.574,58.397L111.074,57.947L111.573,57.498L112.098,57.073L112.622,56.673L113.172,56.274L113.746,55.899L114.346,55.525L114.945,55.175L115.57,54.85L116.194,54.526L116.844,54.226L117.493,53.926L118.142,53.676L118.792,53.427L119.466,53.202L120.116,52.977L120.79,52.802L121.464,52.627L122.164,52.477L122.838,52.353L123.538,52.253L124.237,52.153L124.936,52.103L125.635,52.053L126.36,52.003L127.084,52.003L127.784,52.028L128.508,52.078L129.207,52.128L129.882,52.203L130.556,52.328L131.23,52.452L131.88,52.577L132.554,52.752L133.179,52.927L133.828,53.152L134.428,53.376L135.052,53.601L135.651,53.876L136.85,54.475L137.425,54.8L137.974,55.15L138.524,55.5L139.073,55.874L139.573,56.249L140.072,56.648L140.572,57.048L141.047,57.448L141.496,57.872L142.345,58.772L142.745,59.221L143.144,59.696L143.519,60.17L143.869,60.67L144.194,61.169L144.519,61.694L144.843,62.194L145.118,62.718L145.392,63.243L145.642,63.767L145.867,64.292L146.067,64.816L146.267,65.341L146.416,65.865L146.567,66.39L146.691,66.914L146.816,67.464L146.891,67.988L146.966,68.513L147.016,69.037L147.041,69.587ZM93.715,98.036L93.715,53.776L98.361,53.776L98.361,98.036L93.715,98.036ZM46.133,98.036L46.133,29.398L51.178,29.398L51.178,52.402L70.985,52.402L72.184,52.477L73.358,52.602L74.507,52.752L75.656,52.977L76.755,53.227L77.305,53.376L77.854,53.526L78.404,53.701L78.928,53.901L79.453,54.076L79.977,54.301L80.477,54.526L80.951,54.75L81.426,55L81.901,55.25L82.35,55.525L82.775,55.824L83.199,56.124L83.624,56.424L84.023,56.749L84.398,57.098L84.773,57.448L85.147,57.823L85.497,58.197L85.822,58.597L86.147,58.996L86.446,59.421L86.721,59.846L86.971,60.27L87.221,60.72L87.421,61.194L87.62,61.669L87.795,62.143L87.97,62.643L88.095,63.168L88.195,63.692L88.295,64.217L88.37,64.766L88.419,65.316L88.444,65.89L88.47,66.465L88.47,97.836L83.624,97.836L83.624,67.439L83.599,66.789L83.574,66.165L83.499,65.565L83.399,64.966L83.299,64.417L83.149,63.867L82.974,63.342L82.775,62.843L82.55,62.368L82.275,61.919L82,61.469L81.7,61.044L81.376,60.645L81.001,60.27L80.626,59.92L80.202,59.571L79.752,59.246L79.303,58.947L78.803,58.672L78.279,58.422L77.729,58.197L77.155,57.972L76.555,57.772L75.931,57.598L75.281,57.448L74.607,57.323L73.883,57.198L73.158,57.123L72.384,57.048L71.61,56.998L70.785,56.973L69.961,56.948L51.378,56.948L51.378,98.036L46.133,98.036ZM37.716,56.574L10.715,56.574L10.141,56.599L9.541,56.648L8.992,56.773L8.442,56.923L7.918,57.123L7.418,57.348L6.919,57.648L6.469,57.972L6.244,58.147L6.019,58.322L5.82,58.522L5.645,58.722L5.495,58.922L5.345,59.121L5.195,59.346L5.07,59.571L4.971,59.796L4.871,60.046L4.796,60.27L4.746,60.52L4.671,60.77L4.646,61.044L4.621,61.294L4.621,61.894L4.646,62.219L4.671,62.518L4.721,62.793L4.796,63.068L4.871,63.318L4.946,63.567L5.07,63.792L5.17,64.017L5.32,64.217L5.445,64.392L5.62,64.591L5.77,64.741L5.97,64.891L6.169,65.041L6.369,65.166L6.619,65.266L6.869,65.391L7.144,65.491L7.443,65.59L8.143,65.74L8.942,65.89L9.816,65.99L10.815,66.065L11.889,66.115L24.428,66.115L25.052,66.14L25.677,66.14L26.276,66.19L26.9,66.24L27.475,66.315L28.075,66.415L28.649,66.514L29.223,66.639L29.773,66.764L30.347,66.914L30.872,67.089L31.421,67.264L31.946,67.464L32.47,67.689L32.995,67.913L33.994,68.413L34.469,68.687L34.943,68.987L35.393,69.287L35.842,69.587L36.267,69.911L36.692,70.236L37.091,70.586L37.466,70.936L37.841,71.31L38.215,71.685L38.565,72.085L38.89,72.484L39.214,72.909L39.514,73.333L39.814,73.783L40.088,74.233L40.363,74.707L40.613,75.157L40.838,75.631L41.038,76.106L41.237,76.58L41.412,77.08L41.587,77.555L41.712,78.054L41.837,78.553L41.962,79.078L42.062,79.578L42.137,80.102L42.187,80.627L42.237,81.176L42.261,81.701L42.237,82.275L42.212,82.825L42.162,83.374L42.112,83.924L42.037,84.448L41.937,84.998L41.812,85.522L41.662,86.047L41.512,86.546L41.337,87.071L41.138,87.57L40.938,88.07L40.438,89.069L40.189,89.544L39.889,90.018L39.589,90.493L39.264,90.942L38.94,91.392L38.59,91.816L38.24,92.241L37.89,92.641L37.491,93.04L37.116,93.415L36.717,93.79L36.292,94.139L35.867,94.489L35.418,94.814L34.968,95.139L34.494,95.438L34.019,95.738L33.519,96.013L33.02,96.288L32.521,96.537L32.021,96.762L31.496,96.987L30.972,97.187L30.447,97.361L29.923,97.511L29.398,97.661L28.874,97.786L28.324,97.911L27.775,98.011L27.225,98.086L26.676,98.136L26.126,98.186L25.577,98.211L0,98.211L0,93.84L25.701,93.84L26.501,93.815L27.275,93.74L27.65,93.69L28.049,93.615L28.424,93.54L28.799,93.44L29.174,93.34L29.548,93.215L29.898,93.09L30.273,92.965L30.622,92.791L30.972,92.641L31.346,92.466L31.696,92.266L32.021,92.066L32.371,91.866L32.695,91.642L33.02,91.417L33.32,91.192L33.62,90.942L33.919,90.693L34.469,90.143L34.719,89.868L34.968,89.594L35.218,89.294L35.668,88.669L36.092,88.02L36.292,87.695L36.492,87.346L36.642,86.996L36.816,86.671L36.966,86.322L37.091,85.947L37.216,85.597L37.316,85.247L37.416,84.873L37.491,84.523L37.566,84.148L37.616,83.774L37.666,83.399L37.691,83.025L37.716,82.65L37.716,81.876L37.691,81.476L37.666,81.076L37.616,80.677L37.566,80.302L37.491,79.927L37.391,79.528L37.291,79.153L37.166,78.803L37.041,78.429L36.916,78.054L36.742,77.704L36.592,77.355L36.392,77.005L36.192,76.655L35.992,76.306L35.767,75.981L35.543,75.656L35.293,75.332L35.043,75.032L34.768,74.732L34.494,74.432L34.219,74.158L33.944,73.883L33.644,73.633L33.32,73.358L32.995,73.134L32.67,72.884L31.996,72.459L31.272,72.035L30.897,71.86L30.522,71.685L30.148,71.51L29.748,71.36L29.373,71.235L28.973,71.085L28.574,70.986L28.174,70.885L27.35,70.711L26.526,70.586L25.677,70.511L24.803,70.486L8.717,70.486L8.118,70.411L7.518,70.311L6.944,70.161L6.394,69.986L5.845,69.762L5.295,69.512L4.796,69.212L4.296,68.887L3.821,68.513L3.372,68.138L2.947,67.714L2.573,67.264L2.198,66.789L1.873,66.29L1.573,65.765L1.299,65.216L1.049,64.666L0.849,64.092L0.674,63.517L0.549,62.943L0.45,62.343L0.4,61.744L0.375,61.12L0.4,60.545L0.475,59.971L0.575,59.396L0.749,58.846L0.949,58.297L1.199,57.772L1.499,57.248L1.823,56.724L2.198,56.249L2.623,55.774L3.047,55.325L3.522,54.925L4.021,54.551L4.571,54.176L5.145,53.851L5.745,53.551L6.369,53.277L6.994,53.052L7.643,52.852L8.293,52.677L8.942,52.552L9.591,52.452L10.266,52.402L37.716,52.402L37.716,56.574ZM93.715,47.707L93.715,29.248L98.361,29.248L98.361,47.707L93.715,47.707Z"
            style="fill:rgb(221,19,123);"/>
        </g>
        <g transform="matrix(0,-1,-1,0,138.287,229.68)">
            <rect x="116.057" y="-98.573" width="3.946" height="235.66"
            style='fill: gray'/>
        </g>
        <g transform="matrix(1,0,0,1,1,120.517)">
            <path d="M5.72,8.367L8.517,8.367L9.367,8.342L10.091,8.292L10.416,8.267L10.69,8.217L10.94,8.168L11.165,8.093L11.34,8.018L11.515,7.943L11.639,7.843L11.764,7.718L11.839,7.618L11.914,7.493L11.939,7.343L11.964,7.193L11.939,7.044L11.914,6.894L11.839,6.744L11.739,6.619L11.639,6.519L11.489,6.419L11.315,6.319L11.115,6.244L10.89,6.169L10.64,6.094L10.341,6.044L10.041,5.994L9.317,5.945L8.467,5.92L5.72,5.92L5.72,8.367ZM8.192,4.146L8.817,4.121L9.342,4.071L9.566,4.046L9.791,3.996L9.966,3.946L10.141,3.871L10.291,3.796L10.416,3.722L10.54,3.647L10.615,3.547L10.69,3.447L10.74,3.347L10.765,3.222L10.79,3.097L10.765,2.947L10.74,2.822L10.69,2.698L10.615,2.597L10.54,2.498L10.416,2.398L10.291,2.298L10.141,2.223L9.966,2.173L9.766,2.098L9.566,2.048L9.342,2.023L8.817,1.973L8.192,1.948L5.72,1.948L5.72,4.146L8.192,4.146ZM0.899,10.191L0.899,0.175L8.892,0.175L9.741,0.2L10.54,0.25L11.29,0.325L11.964,0.424L12.588,0.524L13.163,0.674L13.688,0.824L14.137,0.999L14.512,1.174L14.687,1.274L14.862,1.399L14.986,1.498L15.136,1.623L15.236,1.748L15.336,1.873L15.411,1.998L15.486,2.148L15.536,2.298L15.586,2.423L15.611,2.597L15.611,2.747L15.586,2.897L15.561,3.072L15.511,3.222L15.436,3.372L15.361,3.522L15.236,3.647L15.111,3.796L14.962,3.921L14.787,4.046L14.587,4.146L14.387,4.271L14.162,4.371L13.638,4.546L13.063,4.721L13.538,4.795L13.987,4.895L14.412,4.995L14.812,5.12L15.161,5.245L15.511,5.395L15.786,5.52L16.06,5.695L16.285,5.845L16.485,6.044L16.66,6.219L16.81,6.419L16.909,6.644L16.985,6.844L17.035,7.093L17.06,7.318L17.035,7.493L17.01,7.668L16.985,7.843L16.935,7.993L16.86,8.168L16.785,8.292L16.685,8.442L16.585,8.592L16.46,8.717L16.31,8.842L16.16,8.967L15.985,9.092L15.611,9.291L15.161,9.491L14.662,9.641L14.087,9.791L13.463,9.916L12.788,10.016L12.039,10.091L11.24,10.166L10.39,10.191L0.899,10.191ZM21.256,10.191L21.256,0.175L34.069,0.175L34.069,2.023L26.051,2.023L26.051,4.071L33.719,4.071L33.719,5.92L26.051,5.92L26.051,8.317L34.319,8.317L34.319,10.191L21.256,10.191ZM44.36,6.519L50.005,6.519L47.332,2.722L44.36,6.519ZM36.317,10.191L44.684,0.175L50.229,0.175L57.698,10.191L52.602,10.191L51.228,8.242L42.961,8.242L41.437,10.191L36.317,10.191ZM77.904,0.175L77.904,6.169L77.854,6.419L77.829,6.669L77.754,6.919L77.679,7.143L77.579,7.368L77.454,7.568L77.305,7.793L77.155,7.993L76.98,8.192L76.78,8.367L76.555,8.542L76.331,8.717L76.081,8.892L75.806,9.042L75.506,9.192L75.207,9.341L74.882,9.466L74.557,9.591L74.207,9.716L73.458,9.916L72.634,10.091L71.785,10.216L70.861,10.316L69.862,10.366L68.837,10.39L67.788,10.366L66.814,10.316L65.89,10.216L65.016,10.091L64.216,9.916L63.467,9.716L63.117,9.591L62.793,9.466L62.468,9.341L62.143,9.192L61.869,9.042L61.594,8.892L61.344,8.717L61.12,8.542L60.895,8.367L60.695,8.192L60.52,7.993L60.37,7.793L60.22,7.568L60.095,7.368L59.995,7.143L59.92,6.919L59.845,6.669L59.796,6.419L59.771,6.169L59.771,0.175L64.591,0.175L64.591,5.82L64.616,6.094L64.666,6.369L64.741,6.619L64.866,6.869L65.016,7.093L65.216,7.293L65.415,7.468L65.69,7.643L65.965,7.793L66.29,7.918L66.639,8.043L67.039,8.118L67.439,8.192L67.888,8.242L68.363,8.267L69.362,8.267L69.836,8.242L70.286,8.192L70.686,8.118L71.06,8.043L71.41,7.918L71.735,7.793L72.009,7.643L72.284,7.468L72.509,7.293L72.684,7.093L72.834,6.869L72.958,6.644L73.034,6.369L73.083,6.094L73.108,5.82L73.108,0.175L77.904,0.175ZM87.595,10.191L87.595,2.023L81.251,2.023L81.251,0.175L98.985,0.175L98.985,2.023L92.641,2.023L92.641,10.191L87.595,10.191ZM107.552,10.191L107.552,5.67L99.984,0.175L105.754,0.175L109.95,3.422L114.271,0.175L119.966,0.175L112.348,5.645L112.348,10.191L107.552,10.191ZM138.799,8.067L135.552,6.094L135.052,6.269L134.652,6.444L134.328,6.619L134.078,6.769L133.878,6.944L133.753,7.093L133.703,7.193L133.653,7.293L133.653,7.368L133.628,7.468L133.653,7.593L133.678,7.718L133.728,7.818L133.803,7.943L133.878,8.043L134.003,8.143L134.128,8.217L134.278,8.317L134.428,8.392L134.602,8.467L134.802,8.517L135.002,8.567L135.427,8.617L135.901,8.642L136.276,8.642L136.625,8.617L136.975,8.567L137.35,8.492L137.7,8.417L138.074,8.317L138.424,8.192L138.799,8.067ZM142.495,10.191L141.121,9.416L140.447,9.641L139.723,9.841L138.999,9.991L138.249,10.141L137.5,10.24L136.725,10.316L135.926,10.366L135.152,10.39L134.503,10.366L133.878,10.341L133.278,10.265L132.729,10.191L132.179,10.091L131.68,9.941L131.205,9.791L130.756,9.616L130.356,9.416L130.006,9.217L129.732,8.992L129.482,8.767L129.382,8.642L129.307,8.517L129.232,8.392L129.158,8.267L129.107,8.118L129.082,7.993L129.057,7.843L129.057,7.693L129.082,7.493L129.107,7.268L129.207,7.069L129.307,6.869L129.457,6.669L129.607,6.494L129.832,6.294L130.056,6.119L130.331,5.945L130.631,5.77L130.981,5.595L131.356,5.42L131.78,5.245L132.23,5.07L132.729,4.895L133.254,4.721L132.779,4.371L132.404,4.071L132.08,3.796L131.83,3.547L131.655,3.322L131.53,3.072L131.455,2.847L131.43,2.623L131.455,2.473L131.455,2.348L131.505,2.198L131.555,2.073L131.605,1.948L131.68,1.823L131.755,1.699L131.855,1.574L132.08,1.349L132.379,1.124L132.704,0.924L133.104,0.724L133.529,0.549L133.978,0.424L134.478,0.275L135.002,0.175L135.552,0.1L136.151,0.05L136.775,0L138.024,0L138.599,0.05L139.148,0.1L139.673,0.15L140.172,0.25L140.622,0.375L141.047,0.5L141.446,0.649L141.796,0.824L142.095,0.999L142.37,1.199L142.57,1.399L142.745,1.623L142.87,1.848L142.945,2.098L142.97,2.348L142.945,2.548L142.895,2.722L142.845,2.897L142.745,3.097L142.62,3.272L142.495,3.422L142.32,3.597L142.121,3.772L141.896,3.921L141.646,4.071L141.346,4.221L141.047,4.371L140.697,4.521L140.322,4.671L139.922,4.821L139.498,4.97L142.095,6.519L142.545,6.219L142.92,5.97L143.22,5.745L143.494,5.545L143.869,5.22L144.144,4.97L148.44,4.97L147.965,5.47L147.466,5.945L146.991,6.369L146.517,6.744L146.042,7.093L145.542,7.418L145.068,7.693L144.568,7.968L148.29,10.191L142.495,10.191ZM137.4,3.722L137.849,3.572L138.224,3.422L138.549,3.297L138.799,3.147L138.999,2.972L139.123,2.822L139.173,2.747L139.223,2.648L139.223,2.573L139.248,2.473L139.223,2.398L139.223,2.298L139.173,2.223L139.123,2.123L139.048,2.048L138.973,1.973L138.873,1.923L138.748,1.848L138.499,1.748L138.199,1.673L137.849,1.648L137.475,1.623L137.1,1.648L136.75,1.673L136.451,1.748L136.176,1.848L135.951,1.948L135.801,2.073L135.751,2.148L135.701,2.223L135.676,2.298L135.676,2.373L135.701,2.498L135.776,2.648L135.901,2.772L136.076,2.922L136.301,3.097L136.601,3.272L136.95,3.472L137.4,3.722ZM176.539,9.366L174.791,9.816L173.917,9.991L172.993,10.141L172.543,10.191L172.093,10.24L171.619,10.291L171.144,10.316L170.669,10.341L170.195,10.366L169.695,10.366L169.221,10.39L168.646,10.366L168.097,10.366L167.572,10.316L167.048,10.291L166.548,10.24L166.049,10.166L165.549,10.116L165.074,10.016L164.6,9.916L164.15,9.816L163.726,9.716L163.301,9.566L162.902,9.441L162.502,9.291L162.127,9.142L161.778,8.967L161.428,8.792L161.103,8.592L160.779,8.392L160.504,8.192L160.229,7.968L159.979,7.743L159.754,7.518L159.555,7.268L159.38,7.019L159.23,6.794L159.105,6.519L158.98,6.269L158.905,6.019L158.855,5.745L158.805,5.47L158.805,4.895L158.855,4.621L158.905,4.346L158.98,4.071L159.08,3.821L159.23,3.572L159.38,3.322L159.555,3.097L159.754,2.847L159.954,2.623L160.204,2.423L160.479,2.198L160.779,1.998L161.078,1.798L161.428,1.599L161.778,1.424L162.152,1.249L162.552,1.099L162.976,0.949L163.401,0.799L163.826,0.674L164.275,0.549L164.75,0.45L165.25,0.35L165.749,0.275L166.249,0.2L166.798,0.15L167.323,0.1L168.472,0.025L169.646,0L170.52,0L171.394,0.05L172.243,0.1L173.067,0.2L173.917,0.325L174.741,0.45L175.565,0.624L176.389,0.824L176.389,3.172L175.59,2.922L174.791,2.698L173.991,2.523L173.192,2.373L172.393,2.248L171.569,2.173L170.769,2.123L169.97,2.098L169.271,2.123L168.597,2.148L167.972,2.223L167.373,2.298L166.823,2.423L166.323,2.573L165.849,2.722L165.399,2.922L165.025,3.147L164.675,3.372L164.525,3.497L164.4,3.622L164.275,3.772L164.15,3.896L164.051,4.046L163.975,4.196L163.901,4.346L163.851,4.521L163.801,4.671L163.776,4.846L163.751,5.02L163.726,5.195L163.751,5.37L163.751,5.545L163.801,5.695L163.826,5.869L163.901,6.019L163.951,6.169L164.051,6.319L164.125,6.469L164.35,6.744L164.625,6.993L164.95,7.218L165.325,7.443L165.749,7.643L166.199,7.818L166.673,7.943L167.198,8.067L167.747,8.168L168.322,8.217L168.946,8.267L170.47,8.267L171.344,8.192L172.193,8.093L173.067,7.968L173.942,7.793L174.816,7.568L175.69,7.318L176.539,7.019L176.539,9.366ZM186.355,6.519L192.025,6.519L189.328,2.722L186.355,6.519ZM178.313,10.191L186.68,0.175L192.225,0.175L199.693,10.191L194.598,10.191L193.224,8.242L184.981,8.242L183.433,10.191L178.313,10.191ZM209.609,4.296L210.233,4.271L210.783,4.221L211.008,4.171L211.232,4.121L211.433,4.071L211.607,3.996L211.757,3.921L211.882,3.821L212.007,3.747L212.082,3.622L212.157,3.522L212.207,3.397L212.232,3.247L212.257,3.122L212.232,2.972L212.207,2.847L212.157,2.722L212.082,2.623L211.982,2.498L211.882,2.423L211.732,2.323L211.582,2.248L211.382,2.173L211.208,2.123L210.983,2.073L210.733,2.023L210.208,1.973L209.609,1.948L207.311,1.948L207.311,4.296L209.609,4.296ZM202.516,10.191L202.516,0.175L210.533,0.175L211.407,0.225L212.232,0.275L212.981,0.35L213.68,0.45L214.305,0.574L214.854,0.724L215.354,0.874L215.804,1.074L216.178,1.274L216.353,1.399L216.503,1.523L216.628,1.648L216.753,1.773L216.877,1.923L216.952,2.073L217.052,2.223L217.102,2.373L217.152,2.548L217.202,2.722L217.227,2.897L217.227,3.072L217.202,3.297L217.177,3.472L217.102,3.671L217.027,3.846L216.903,4.021L216.753,4.196L216.603,4.346L216.403,4.496L216.178,4.646L215.928,4.795L215.654,4.92L215.354,5.045L215.029,5.17L214.679,5.295L214.305,5.395L213.88,5.495L214.23,5.595L214.555,5.695L214.879,5.82L215.154,5.97L215.429,6.119L215.703,6.319L216.153,6.769L219.225,10.191L213.805,10.191L211.357,7.318L211.208,7.143L211.058,6.993L210.908,6.844L210.733,6.719L210.558,6.619L210.383,6.519L210.208,6.444L210.009,6.369L209.609,6.244L209.109,6.169L208.535,6.119L207.886,6.094L207.761,6.119L207.311,6.119L207.311,10.191L202.516,10.191ZM222.098,10.191L222.098,0.175L234.911,0.175L234.911,2.023L226.893,2.023L226.893,4.071L234.561,4.071L234.561,5.92L226.893,5.92L226.893,8.317L235.161,8.317L235.161,10.191L222.098,10.191Z"
            style='fill: gray'/>
        </g>
    </g>
</svg>
